#N canvas 184 284 1126 493 12;
#X obj 789 105 udpreceive 9056;
#X obj 787 137 oscparse;
#X obj 804 167 list trim;
#X obj 812 200 route test capteur2 filter;
#X obj 777 241 select 0 4095;
#X obj 875 422 print sup;
#X obj 886 356 expr \$1 >= 1500;
#X obj 761 355 expr \$1 <= 300;
#X obj 761 381 print inf;
#X obj 778 281 print 0;
#X obj 836 283 print 4095;
#X connect 0 0 1 0;
#X connect 1 0 2 0;
#X connect 2 0 3 0;
#X connect 3 0 4 0;
#X connect 4 0 9 0;
#X connect 4 1 10 0;
#X connect 4 2 8 0;
#X connect 6 0 5 0;
#X connect 7 0 8 0;
